<?xml version="1.0" standalone="no"?>
<!DOCTYPE svg PUBLIC "-//W3C//DTD SVG 20010904//EN"
 "http://www.w3.org/TR/2001/REC-SVG-20010904/DTD/svg10.dtd">
<svg version="1.0" xmlns="http://www.w3.org/2000/svg"
 width="250.000000pt" height="250.000000pt" viewBox="0 0 250.000000 250.000000"
 preserveAspectRatio="xMidYMid meet">
<metadata>
Created by potrace 1.14, written by Peter Selinger 2001-2017
</metadata>
<g transform="translate(0.000000,250.000000) scale(0.100000,-0.100000)"
fill="#000000" stroke="none">
<path d="M684 2169 c-2 -4 -2 -24 1 -46 2 -21 11 -94 19 -163 9 -69 18 -147
21 -175 5 -49 10 -86 20 -155 3 -19 7 -57 10 -85 12 -102 16 -141 20 -165 2
-14 7 -52 10 -85 4 -33 8 -71 10 -85 2 -14 9 -65 15 -115 6 -49 12 -106 15
-125 2 -19 7 -60 10 -90 4 -30 8 -66 10 -80 2 -14 7 -47 10 -75 12 -105 23
-197 30 -245 11 -80 18 -146 16 -154 -1 -4 1 -17 4 -27 6 -18 17 -19 201 -17
l195 3 43 100 c50 115 519 1190 546 1250 10 22 46 105 80 185 34 80 70 163 80
185 53 118 70 158 70 164 0 11 -408 7 -419 -4 -10 -10 -27 -56 -256 -655 -204
-535 -268 -700 -270 -698 -2 2 -6 62 -10 133 -3 72 -8 148 -10 170 -2 22 -6
83 -9 135 -4 52 -9 127 -11 165 -3 39 -7 99 -10 135 -2 36 -7 103 -10 150 -3
47 -8 112 -10 145 -2 33 -7 107 -11 165 -6 96 -10 147 -13 160 -2 8 -392 6
-397 -1z"/>
</g>
</svg>
